<?xml version="1.0" encoding="utf-8"?>
<svg xmlns="http://www.w3.org/2000/svg" xmlns:xlink="http://www.w3.org/1999/xlink" style="margin: auto; background: none; display: block; shape-rendering: auto;" width="211px" height="211px" viewBox="0 0 100 100" preserveAspectRatio="xMidYMid">
<g transform="rotate(0 50 50)">
  <rect x="47.5" y="31" rx="2.48" ry="2.48" width="5" height="8" fill="#1f2985">
    <animate attributeName="opacity" values="1;0" keyTimes="0;1" dur="0.641025641025641s" begin="-0.5769230769230769s" repeatCount="indefinite"></animate>
  </rect>
</g><g transform="rotate(36 50 50)">
  <rect x="47.5" y="31" rx="2.48" ry="2.48" width="5" height="8" fill="#1f2985">
    <animate attributeName="opacity" values="1;0" keyTimes="0;1" dur="0.641025641025641s" begin="-0.5128205128205128s" repeatCount="indefinite"></animate>
  </rect>
</g><g transform="rotate(72 50 50)">
  <rect x="47.5" y="31" rx="2.48" ry="2.48" width="5" height="8" fill="#1f2985">
    <animate attributeName="opacity" values="1;0" keyTimes="0;1" dur="0.641025641025641s" begin="-0.4487179487179487s" repeatCount="indefinite"></animate>
  </rect>
</g><g transform="rotate(108 50 50)">
  <rect x="47.5" y="31" rx="2.48" ry="2.48" width="5" height="8" fill="#1f2985">
    <animate attributeName="opacity" values="1;0" keyTimes="0;1" dur="0.641025641025641s" begin="-0.3846153846153846s" repeatCount="indefinite"></animate>
  </rect>
</g><g transform="rotate(144 50 50)">
  <rect x="47.5" y="31" rx="2.48" ry="2.48" width="5" height="8" fill="#1f2985">
    <animate attributeName="opacity" values="1;0" keyTimes="0;1" dur="0.641025641025641s" begin="-0.3205128205128205s" repeatCount="indefinite"></animate>
  </rect>
</g><g transform="rotate(180 50 50)">
  <rect x="47.5" y="31" rx="2.48" ry="2.48" width="5" height="8" fill="#1f2985">
    <animate attributeName="opacity" values="1;0" keyTimes="0;1" dur="0.641025641025641s" begin="-0.2564102564102564s" repeatCount="indefinite"></animate>
  </rect>
</g><g transform="rotate(216 50 50)">
  <rect x="47.5" y="31" rx="2.48" ry="2.48" width="5" height="8" fill="#1f2985">
    <animate attributeName="opacity" values="1;0" keyTimes="0;1" dur="0.641025641025641s" begin="-0.1923076923076923s" repeatCount="indefinite"></animate>
  </rect>
</g><g transform="rotate(252 50 50)">
  <rect x="47.5" y="31" rx="2.48" ry="2.48" width="5" height="8" fill="#1f2985">
    <animate attributeName="opacity" values="1;0" keyTimes="0;1" dur="0.641025641025641s" begin="-0.1282051282051282s" repeatCount="indefinite"></animate>
  </rect>
</g><g transform="rotate(288 50 50)">
  <rect x="47.5" y="31" rx="2.48" ry="2.48" width="5" height="8" fill="#1f2985">
    <animate attributeName="opacity" values="1;0" keyTimes="0;1" dur="0.641025641025641s" begin="-0.0641025641025641s" repeatCount="indefinite"></animate>
  </rect>
</g><g transform="rotate(324 50 50)">
  <rect x="47.5" y="31" rx="2.48" ry="2.48" width="5" height="8" fill="#1f2985">
    <animate attributeName="opacity" values="1;0" keyTimes="0;1" dur="0.641025641025641s" begin="0s" repeatCount="indefinite"></animate>
  </rect>
</g>
<!-- [ldio] generated by https://loading.io/ --></svg>